<svg xmlns="http://www.w3.org/2000/svg" xmlns:xlink="http://www.w3.org/1999/xlink" viewBox="0 0 40 40"><defs><style>.cls-1{fill:none;}.cls-2{clip-path:url(#clip-path);}.cls-3,.cls-8{fill:#0a9b39;}.cls-4{fill:#fedf0d;}.cls-5{fill:#243468;}.cls-6{clip-path:url(#clip-path-2);}.cls-7{fill:#fff;}.cls-8{fill-rule:evenodd;}.cls-9{clip-path:url(#clip-path-3);}</style><clipPath id="clip-path"><circle class="cls-1" cx="20" cy="20" r="20"/></clipPath><clipPath id="clip-path-2"><circle class="cls-1" cx="20" cy="20" r="7.63"/></clipPath><clipPath id="clip-path-3"><path class="cls-1" d="M22.37,19l.29-.67.6.26-.29.67Zm.49-.32-.05.12.3.13.05-.12Z"/></clipPath></defs><g id="Capa_2" data-name="Capa 2"><g id="Capa_1-2" data-name="Capa 1"><g class="cls-2"><rect class="cls-3" x="-10.48" y="-1.34" width="60.96" height="42.67"/><path class="cls-4" d="M1.91,20,20,31.55,38.09,20,20,8.45Z"/><circle class="cls-5" cx="20" cy="20" r="7.63"/><g class="cls-6"><path class="cls-7" d="M-2.89,35.26a18.53,18.53,0,0,1,37.06,0H33.08a17.44,17.44,0,0,0-34.88,0Z"/></g><path id="O" class="cls-8" d="M13.49,17.77a.36.36,0,0,0-.08-.72.36.36,0,0,0,.08.72m0-.13a.24.24,0,1,0-.22-.21.21.21,0,0,0,.22.21"/><g id="R"><path id="P" class="cls-8" d="M14.09,17.7h.13l0-.27.29,0a.23.23,0,0,0,.21-.25.22.22,0,0,0-.24-.21l-.41,0Zm.1-.41.28,0a.1.1,0,0,0,.09-.1.09.09,0,0,0-.1-.08h-.28Z"/><path class="cls-3" d="M14.7,17.66c0-.1,0-.33-.18-.32h-.19c.22,0,.24.22.25.32"/></g><path id="D" class="cls-8" d="M15,17.65h.34a.3.3,0,0,0,.3-.32v-.1a.31.31,0,0,0-.31-.31H15Zm.13-.14h.2a.21.21,0,0,0,.19-.2v-.07a.19.19,0,0,0-.2-.19h-.2Z"/><path id="E" class="cls-3" d="M15.93,17.64l.65,0v-.13l-.53,0v-.19l.42,0v-.13h-.41v-.15l.5,0v-.14l-.63,0Z"/><path id="M" class="cls-3" d="M16.85,17.68H17l.05-.5.1.51h.11l.19-.48,0,.49h.12l.07-.72-.19,0-.18.49L17.09,17l-.18,0Z"/><path id="e-2" data-name="e" class="cls-3" d="M18.36,17.85l.53.09,0-.12-.41-.07,0-.17.34.06,0-.12-.34-.06,0-.11.4.07,0-.13-.52-.09Z"/><path id="P-2" data-name="P" class="cls-8" d="M19.74,18.12l.13,0,.06-.26.29.07a.22.22,0,0,0,.27-.16.23.23,0,0,0-.16-.28l-.4-.1Zm.23-.36.27.07a.09.09,0,0,0,.11-.07.08.08,0,0,0-.06-.11L20,17.58Z"/><g id="R-2" data-name="R"><path id="P-3" data-name="P" class="cls-8" d="M20.63,18.36l.13,0,.08-.26.27.09a.24.24,0,0,0,.29-.15.23.23,0,0,0-.15-.29l-.39-.12Zm.25-.35.26.08a.09.09,0,0,0,.12-.06.08.08,0,0,0-.06-.11l-.27-.09Z"/><path class="cls-3" d="M21.22,18.54c0-.1.1-.32,0-.36L21,18.12c.22.07.15.29.12.38"/></g><path id="O-2" data-name="O" class="cls-8" d="M21.81,18.75a.33.33,0,0,0,.43-.22.33.33,0,1,0-.61-.23.34.34,0,0,0,.18.45m.05-.12A.23.23,0,0,0,22,18.2a.21.21,0,0,0-.26.15.21.21,0,0,0,.1.28"/><g id="G"><g class="cls-9"><path id="O-3" data-name="O" class="cls-8" d="M22.67,19.1a.35.35,0,0,0,.44-.2.36.36,0,0,0-.15-.47.35.35,0,0,0-.45.21.34.34,0,0,0,.16.46m0-.12a.22.22,0,0,0,.27-.14.21.21,0,0,0-.09-.28.21.21,0,0,0-.27.13.22.22,0,0,0,.09.29"/></g><rect class="cls-3" x="22.91" y="18.75" width="0.1" height="0.28" transform="translate(-3.52 32.42) rotate(-66.5)"/><rect class="cls-3" x="22.81" y="18.99" width="0.36" height="0.1" transform="translate(-3.64 32.53) rotate(-66.5)"/></g><g id="R-3" data-name="R"><path id="P-4" data-name="P" class="cls-8" d="M23.21,19.34l.12.06.12-.24.26.13a.23.23,0,0,0,.31-.1.24.24,0,0,0-.11-.31l-.37-.18Zm.3-.3.25.13a.11.11,0,0,0,.13,0,.11.11,0,0,0,0-.13l-.26-.13Z"/><path class="cls-3" d="M23.76,19.62c0-.09.15-.3,0-.37l-.18-.09c.21.11.11.31.06.4"/></g><path id="E-3" data-name="E" class="cls-3" d="M24,19.76l.57.32.07-.11-.46-.26.09-.17.36.21.06-.11-.36-.21.07-.12.44.24.06-.11-.54-.31Z"/><path id="S" class="cls-3" d="M25.09,20.12c0,.06,0,.13.09.18s.15.06.17,0-.38-.31-.24-.53.34,0,.41,0,.21.18.11.33l-.13-.08c0-.07,0-.13-.08-.18s-.12-.06-.16,0,.38.3.24.51-.27.09-.39,0-.25-.22-.16-.37Z"/><path id="S-2" data-name="S" class="cls-3" d="M25.87,20.63c0,.06,0,.13.08.19s.14.06.17,0-.36-.33-.21-.54.33,0,.41,0a.24.24,0,0,1,.09.34l-.13-.1c0-.06,0-.13-.07-.17s-.11-.07-.16,0,.37.31.22.52-.28.08-.4,0-.24-.22-.13-.37Z"/><path id="O-4" data-name="O" class="cls-8" d="M26.61,21.47a.37.37,0,1,0,0-.49.34.34,0,0,0,0,.49m.08-.11A.23.23,0,0,0,27,21a.22.22,0,0,0-.3.06.21.21,0,0,0,0,.29"/><g id="αCMi"><g id="star1"><g id="star"><g id="c"><path id="t" class="cls-7" d="M13.77,18.3l-.1.31.16.05"/><path id="t-2" data-name="t" class="cls-7" d="M13.77,18.3l.1.31-.15.05"/></g><g id="c-2" data-name="c"><path id="t-3" data-name="t" class="cls-7" d="M14.08,18.53h-.32v.16"/><path id="t-4" data-name="t" class="cls-7" d="M14.08,18.53l-.26.19-.1-.13"/></g><g id="c-3" data-name="c"><path id="t-5" data-name="t" class="cls-7" d="M13.46,18.53l.27.19.09-.13"/><path id="t-6" data-name="t" class="cls-7" d="M13.46,18.53h.33v.16"/></g><g id="c-4" data-name="c"><path id="t-7" data-name="t" class="cls-7" d="M14,18.89l-.1-.31-.15.05"/><path id="t-8" data-name="t" class="cls-7" d="M14,18.89l-.26-.19.1-.13"/></g><g id="c-5" data-name="c"><path id="t-9" data-name="t" class="cls-7" d="M13.58,18.89l.26-.19-.09-.13"/><path id="t-10" data-name="t" class="cls-7" d="M13.58,18.89l.1-.31.16.05"/></g></g></g></g><g id="αCMa"><g id="star1-2" data-name="star1"><g id="star-2" data-name="star"><g id="c-6" data-name="c"><path id="t-11" data-name="t" class="cls-7" d="M14.45,21.51l-.1.31.15.05"/><path id="t-12" data-name="t" class="cls-7" d="M14.45,21.51l.1.31-.16.05"/></g><g id="c-7" data-name="c"><path id="t-13" data-name="t" class="cls-7" d="M14.76,21.74h-.33v.16"/><path id="t-14" data-name="t" class="cls-7" d="M14.76,21.74l-.27.19-.09-.13"/></g><g id="c-8" data-name="c"><path id="t-15" data-name="t" class="cls-7" d="M14.14,21.74l.26.19.1-.13"/><path id="t-16" data-name="t" class="cls-7" d="M14.14,21.74h.32v.16"/></g><g id="c-9" data-name="c"><path id="t-17" data-name="t" class="cls-7" d="M14.64,22.1l-.1-.31-.16.05"/><path id="t-18" data-name="t" class="cls-7" d="M14.64,22.1l-.27-.19.1-.13"/></g><g id="c-10" data-name="c"><path id="t-19" data-name="t" class="cls-7" d="M14.26,22.1l.26-.19-.1-.13"/><path id="t-20" data-name="t" class="cls-7" d="M14.26,22.1l.1-.31.15.05"/></g></g></g></g><g id="βCMa"><g id="star2"><g id="star-3" data-name="star"><g id="c-11" data-name="c"><path id="t-21" data-name="t" class="cls-7" d="M13.51,22.25l-.08.26.13,0"/><path id="t-22" data-name="t" class="cls-7" d="M13.51,22.25l.09.26-.13,0"/></g><g id="c-12" data-name="c"><path id="t-23" data-name="t" class="cls-7" d="M13.77,22.44H13.5v.13"/><path id="t-24" data-name="t" class="cls-7" d="M13.77,22.44l-.22.16-.08-.11"/></g><g id="c-13" data-name="c"><path id="t-25" data-name="t" class="cls-7" d="M13.25,22.44l.22.16.08-.11"/><path id="t-26" data-name="t" class="cls-7" d="M13.25,22.44h.28v.13"/></g><g id="c-14" data-name="c"><path id="t-27" data-name="t" class="cls-7" d="M13.67,22.74l-.08-.26-.13.05"/><path id="t-28" data-name="t" class="cls-7" d="M13.67,22.74l-.22-.16.08-.11"/></g><g id="c-15" data-name="c"><path id="t-29" data-name="t" class="cls-7" d="M13.35,22.74l.22-.16-.08-.11"/><path id="t-30" data-name="t" class="cls-7" d="M13.35,22.74l.09-.26.13.05"/></g></g></g></g><g id="γCMa"><g id="star4"><g id="star-4" data-name="star"><g id="c-16" data-name="c"><path id="t-31" data-name="t" class="cls-7" d="M15.19,21.21l0,.15.07,0"/><path id="t-32" data-name="t" class="cls-7" d="M15.19,21.21l.05.15-.07,0"/></g><g id="c-17" data-name="c"><path id="t-33" data-name="t" class="cls-7" d="M15.34,21.32h-.15v.08"/><path id="t-34" data-name="t" class="cls-7" d="M15.34,21.32l-.12.09-.05-.06"/></g><g id="c-18" data-name="c"><path id="t-35" data-name="t" class="cls-7" d="M15.05,21.32l.12.09.05-.06"/><path id="t-36" data-name="t" class="cls-7" d="M15.05,21.32h.15v.08"/></g><g id="c-19" data-name="c"><path id="t-37" data-name="t" class="cls-7" d="M15.29,21.5l0-.15-.08,0"/><path id="t-38" data-name="t" class="cls-7" d="M15.29,21.5l-.13-.1.05-.06"/></g><g id="c-20" data-name="c"><path id="t-39" data-name="t" class="cls-7" d="M15.1,21.5l.13-.1-.05-.06"/><path id="t-40" data-name="t" class="cls-7" d="M15.1,21.5l.05-.15.08,0"/></g></g></g></g><g id="δCMa"><g id="star2-2" data-name="star2"><g id="star-5" data-name="star"><g id="c-21" data-name="c"><path id="t-41" data-name="t" class="cls-7" d="M16,22.32l-.09.26.13,0"/><path id="t-42" data-name="t" class="cls-7" d="M16,22.32l.08.26-.13,0"/></g><g id="c-22" data-name="c"><path id="t-43" data-name="t" class="cls-7" d="M16.29,22.51H16v.14"/><path id="t-44" data-name="t" class="cls-7" d="M16.29,22.51l-.22.16L16,22.56"/></g><g id="c-23" data-name="c"><path id="t-45" data-name="t" class="cls-7" d="M15.78,22.51l.22.16.08-.11"/><path id="t-46" data-name="t" class="cls-7" d="M15.78,22.51h.27v.14"/></g><g id="c-24" data-name="c"><path id="t-47" data-name="t" class="cls-7" d="M16.2,22.82l-.09-.26-.13,0"/><path id="t-48" data-name="t" class="cls-7" d="M16.2,22.82,16,22.66l.09-.12"/></g><g id="c-25" data-name="c"><path id="t-49" data-name="t" class="cls-7" d="M15.88,22.82l.22-.16L16,22.54"/><path id="t-50" data-name="t" class="cls-7" d="M15.88,22.82l.08-.26.13,0"/></g></g></g></g><g id="εCMa"><g id="star3"><g id="star-6" data-name="star"><g id="c-26" data-name="c"><path id="t-51" data-name="t" class="cls-7" d="M15.81,23.13l-.07.21.1,0"/><path id="t-52" data-name="t" class="cls-7" d="M15.81,23.13l.06.21-.1,0"/></g><g id="c-27" data-name="c"><path id="t-53" data-name="t" class="cls-7" d="M16,23.29H15.8v.1"/><path id="t-54" data-name="t" class="cls-7" d="M16,23.29l-.17.12-.07-.08"/></g><g id="c-28" data-name="c"><path id="t-55" data-name="t" class="cls-7" d="M15.6,23.29l.18.12.06-.08"/><path id="t-56" data-name="t" class="cls-7" d="M15.6,23.29h.22v.1"/></g><g id="c-29" data-name="c"><path id="t-57" data-name="t" class="cls-7" d="M15.93,23.53l-.06-.21-.11,0"/><path id="t-58" data-name="t" class="cls-7" d="M15.93,23.53l-.17-.13.06-.09"/></g><g id="c-30" data-name="c"><path id="t-59" data-name="t" class="cls-7" d="M15.68,23.53l.18-.13-.07-.09"/><path id="t-60" data-name="t" class="cls-7" d="M15.68,23.53l.07-.21.1,0"/></g></g></g></g><g id="αVir"><g id="star1-3" data-name="star1"><g id="star-7" data-name="star"><g id="c-31" data-name="c"><path id="t-61" data-name="t" class="cls-7" d="M22.37,17.31l-.1.31.15.05"/><path id="t-62" data-name="t" class="cls-7" d="M22.37,17.31l.1.31-.16.05"/></g><g id="c-32" data-name="c"><path id="t-63" data-name="t" class="cls-7" d="M22.68,17.53h-.33v.17"/><path id="t-64" data-name="t" class="cls-7" d="M22.68,17.53l-.27.19-.09-.13"/></g><g id="c-33" data-name="c"><path id="t-65" data-name="t" class="cls-7" d="M22.06,17.53l.26.19.1-.13"/><path id="t-66" data-name="t" class="cls-7" d="M22.06,17.53h.32v.17"/></g><g id="c-34" data-name="c"><path id="t-67" data-name="t" class="cls-7" d="M22.56,17.9l-.1-.31-.16.05"/><path id="t-68" data-name="t" class="cls-7" d="M22.56,17.9l-.27-.19.1-.14"/></g><g id="c-35" data-name="c"><path id="t-69" data-name="t" class="cls-7" d="M22.17,17.9l.27-.19-.1-.14"/><path id="t-70" data-name="t" class="cls-7" d="M22.17,17.9l.11-.31.15.05"/></g></g></g></g><g id="αSco"><g id="star1-4" data-name="star1"><g id="star-8" data-name="star"><g id="c-36" data-name="c"><path id="t-71" data-name="t" class="cls-7" d="M25.35,22.35l-.11.31.16.05"/><path id="t-72" data-name="t" class="cls-7" d="M25.35,22.35l.1.31-.16.05"/></g><g id="c-37" data-name="c"><path id="t-73" data-name="t" class="cls-7" d="M25.66,22.58h-.33v.16"/><path id="t-74" data-name="t" class="cls-7" d="M25.66,22.58l-.27.19-.09-.13"/></g><g id="c-38" data-name="c"><path id="t-75" data-name="t" class="cls-7" d="M25,22.58l.27.19.09-.13"/><path id="t-76" data-name="t" class="cls-7" d="M25,22.58h.33v.16"/></g><g id="c-39" data-name="c"><path id="t-77" data-name="t" class="cls-7" d="M25.54,22.94l-.1-.31-.16.05"/><path id="t-78" data-name="t" class="cls-7" d="M25.54,22.94l-.27-.19.1-.13"/></g><g id="c-40" data-name="c"><path id="t-79" data-name="t" class="cls-7" d="M25.15,22.94l.27-.19-.1-.13"/><path id="t-80" data-name="t" class="cls-7" d="M25.15,22.94l.1-.31.16.05"/></g></g></g></g><g id="βSco"><g id="star3-2" data-name="star3"><g id="star-9" data-name="star"><g id="c-41" data-name="c"><path id="t-81" data-name="t" class="cls-7" d="M26.4,22.53l-.06.21.1,0"/><path id="t-82" data-name="t" class="cls-7" d="M26.4,22.53l.07.21-.1,0"/></g><g id="c-42" data-name="c"><path id="t-83" data-name="t" class="cls-7" d="M26.61,22.68h-.22v.11"/><path id="t-84" data-name="t" class="cls-7" d="M26.61,22.68l-.18.13-.06-.09"/></g><g id="c-43" data-name="c"><path id="t-85" data-name="t" class="cls-7" d="M26.2,22.68l.17.13.07-.09"/><path id="t-86" data-name="t" class="cls-7" d="M26.2,22.68h.21v.11"/></g><g id="c-44" data-name="c"><path id="t-87" data-name="t" class="cls-7" d="M26.53,22.93l-.07-.21-.1,0"/><path id="t-88" data-name="t" class="cls-7" d="M26.53,22.93l-.17-.13.06-.09"/></g><g id="c-45" data-name="c"><path id="t-89" data-name="t" class="cls-7" d="M26.28,22.93l.17-.13-.06-.09"/><path id="t-90" data-name="t" class="cls-7" d="M26.28,22.93l.06-.21.11,0"/></g></g></g></g><g id="εSco"><g id="star2-3" data-name="star2"><g id="star-10" data-name="star"><g id="c-46" data-name="c"><path id="t-91" data-name="t" class="cls-7" d="M25.66,23.08l-.09.26.13,0"/><path id="t-92" data-name="t" class="cls-7" d="M25.66,23.08l.08.26-.13,0"/></g><g id="c-47" data-name="c"><path id="t-93" data-name="t" class="cls-7" d="M25.92,23.27h-.28v.13"/><path id="t-94" data-name="t" class="cls-7" d="M25.92,23.27l-.22.16-.08-.11"/></g><g id="c-48" data-name="c"><path id="t-95" data-name="t" class="cls-7" d="M25.4,23.27l.22.16.08-.11"/><path id="t-96" data-name="t" class="cls-7" d="M25.4,23.27h.27v.13"/></g><g id="c-49" data-name="c"><path id="t-97" data-name="t" class="cls-7" d="M25.82,23.57l-.09-.26-.13.05"/><path id="t-98" data-name="t" class="cls-7" d="M25.82,23.57l-.22-.16.08-.11"/></g><g id="c-50" data-name="c"><path id="t-99" data-name="t" class="cls-7" d="M25.5,23.57l.22-.16-.08-.11"/><path id="t-100" data-name="t" class="cls-7" d="M25.5,23.57l.08-.26.13.05"/></g></g></g></g><g id="θSco"><g id="star2-4" data-name="star2"><g id="star-11" data-name="star"><g id="c-51" data-name="c"><path id="t-101" data-name="t" class="cls-7" d="M23.82,24.68l-.08.26.12,0"/><path id="t-102" data-name="t" class="cls-7" d="M23.82,24.68l.08.26-.13,0"/></g><g id="c-52" data-name="c"><path id="t-103" data-name="t" class="cls-7" d="M24.08,24.87h-.27V25"/><path id="t-104" data-name="t" class="cls-7" d="M24.08,24.87l-.22.16-.08-.11"/></g><g id="c-53" data-name="c"><path id="t-105" data-name="t" class="cls-7" d="M23.56,24.87l.22.16.08-.11"/><path id="t-106" data-name="t" class="cls-7" d="M23.56,24.87h.27V25"/></g><g id="c-54" data-name="c"><path id="t-107" data-name="t" class="cls-7" d="M24,25.17l-.08-.26-.13,0"/><path id="t-108" data-name="t" class="cls-7" d="M24,25.17,23.76,25l.08-.11"/></g><g id="c-55" data-name="c"><path id="t-109" data-name="t" class="cls-7" d="M23.66,25.17l.22-.16-.08-.11"/><path id="t-110" data-name="t" class="cls-7" d="M23.66,25.17l.08-.26.13,0"/></g></g></g></g><g id="ιSco"><g id="star3-3" data-name="star3"><g id="star-12" data-name="star"><g id="c-56" data-name="c"><path id="t-111" data-name="t" class="cls-7" d="M23.81,25.5l-.07.21.11,0"/><path id="t-112" data-name="t" class="cls-7" d="M23.81,25.5l.07.21-.11,0"/></g><g id="c-57" data-name="c"><path id="t-113" data-name="t" class="cls-7" d="M24,25.65H23.8v.11"/><path id="t-114" data-name="t" class="cls-7" d="M24,25.65l-.18.13-.06-.09"/></g><g id="c-58" data-name="c"><path id="t-115" data-name="t" class="cls-7" d="M23.6,25.65l.18.13.06-.09"/><path id="t-116" data-name="t" class="cls-7" d="M23.6,25.65h.22v.11"/></g><g id="c-59" data-name="c"><path id="t-117" data-name="t" class="cls-7" d="M23.94,25.9l-.07-.21-.1,0"/><path id="t-118" data-name="t" class="cls-7" d="M23.94,25.9l-.18-.13.06-.09"/></g><g id="c-60" data-name="c"><path id="t-119" data-name="t" class="cls-7" d="M23.68,25.9l.18-.13-.07-.09"/><path id="t-120" data-name="t" class="cls-7" d="M23.68,25.9l.07-.21.1,0"/></g></g></g></g><g id="κSco"><g id="star3-4" data-name="star3"><g id="star-13" data-name="star"><g id="c-61" data-name="c"><path id="t-121" data-name="t" class="cls-7" d="M24.58,24.13l-.07.21.1,0"/><path id="t-122" data-name="t" class="cls-7" d="M24.58,24.13l.06.21-.1,0"/></g><g id="c-62" data-name="c"><path id="t-123" data-name="t" class="cls-7" d="M24.78,24.28h-.21v.11"/><path id="t-124" data-name="t" class="cls-7" d="M24.78,24.28l-.17.13-.07-.09"/></g><g id="c-63" data-name="c"><path id="t-125" data-name="t" class="cls-7" d="M24.37,24.28l.18.13.06-.09"/><path id="t-126" data-name="t" class="cls-7" d="M24.37,24.28h.22v.11"/></g><g id="c-64" data-name="c"><path id="t-127" data-name="t" class="cls-7" d="M24.71,24.53l-.07-.21-.11,0"/><path id="t-128" data-name="t" class="cls-7" d="M24.71,24.53l-.18-.13.06-.09"/></g><g id="c-65" data-name="c"><path id="t-129" data-name="t" class="cls-7" d="M24.45,24.53l.18-.13-.07-.09"/><path id="t-130" data-name="t" class="cls-7" d="M24.45,24.53l.07-.21.1,0"/></g></g></g></g><g id="λSco"><g id="star2-5" data-name="star2"><g id="star-14" data-name="star"><g id="c-66" data-name="c"><path id="t-131" data-name="t" class="cls-7" d="M25.19,23.69l-.08.26.12,0"/><path id="t-132" data-name="t" class="cls-7" d="M25.19,23.69l.08.26-.13,0"/></g><g id="c-67" data-name="c"><path id="t-133" data-name="t" class="cls-7" d="M25.45,23.88h-.27V24"/><path id="t-134" data-name="t" class="cls-7" d="M25.45,23.88l-.22.16-.08-.11"/></g><g id="c-68" data-name="c"><path id="t-135" data-name="t" class="cls-7" d="M24.93,23.88l.22.16.08-.11"/><path id="t-136" data-name="t" class="cls-7" d="M24.93,23.88h.27V24"/></g><g id="c-69" data-name="c"><path id="t-137" data-name="t" class="cls-7" d="M25.35,24.19l-.08-.26-.13,0"/><path id="t-138" data-name="t" class="cls-7" d="M25.35,24.19,25.13,24l.08-.12"/></g><g id="c-70" data-name="c"><path id="t-139" data-name="t" class="cls-7" d="M25,24.19l.22-.16-.08-.12"/><path id="t-140" data-name="t" class="cls-7" d="M25,24.19l.08-.26.13,0"/></g></g></g></g><g id="μSco"><g id="star3-5" data-name="star3"><g id="star-15" data-name="star"><g id="c-71" data-name="c"><path id="t-141" data-name="t" class="cls-7" d="M23.79,24l-.07.2.1,0"/><path id="t-142" data-name="t" class="cls-7" d="M23.79,24l.07.2-.11,0"/></g><g id="c-72" data-name="c"><path id="t-143" data-name="t" class="cls-7" d="M24,24.14h-.22v.11"/><path id="t-144" data-name="t" class="cls-7" d="M24,24.14l-.18.12-.06-.08"/></g><g id="c-73" data-name="c"><path id="t-145" data-name="t" class="cls-7" d="M23.58,24.14l.18.12.06-.08"/><path id="t-146" data-name="t" class="cls-7" d="M23.58,24.14h.22v.11"/></g><g id="c-74" data-name="c"><path id="t-147" data-name="t" class="cls-7" d="M23.92,24.38l-.07-.21-.1,0"/><path id="t-148" data-name="t" class="cls-7" d="M23.92,24.38l-.18-.13.06-.09"/></g><g id="c-75" data-name="c"><path id="t-149" data-name="t" class="cls-7" d="M23.66,24.38l.18-.13-.07-.09"/><path id="t-150" data-name="t" class="cls-7" d="M23.66,24.38l.07-.21.1,0"/></g></g></g></g><g id="αHya"><g id="star2-6" data-name="star2"><g id="star-16" data-name="star"><g id="c-76" data-name="c"><path id="t-151" data-name="t" class="cls-7" d="M17.09,20,17,20.3l.13,0"/><path id="t-152" data-name="t" class="cls-7" d="M17.09,20l.09.26-.13,0"/></g><g id="c-77" data-name="c"><path id="t-153" data-name="t" class="cls-7" d="M17.35,20.23h-.27v.13"/><path id="t-154" data-name="t" class="cls-7" d="M17.35,20.23l-.22.16-.08-.11"/></g><g id="c-78" data-name="c"><path id="t-155" data-name="t" class="cls-7" d="M16.83,20.23l.23.16.08-.11"/><path id="t-156" data-name="t" class="cls-7" d="M16.83,20.23h.28v.13"/></g><g id="c-79" data-name="c"><path id="t-157" data-name="t" class="cls-7" d="M17.25,20.53l-.08-.26-.13,0"/><path id="t-158" data-name="t" class="cls-7" d="M17.25,20.53,17,20.37l.08-.11"/></g><g id="c-80" data-name="c"><path id="t-159" data-name="t" class="cls-7" d="M16.93,20.53l.22-.16-.08-.11"/><path id="t-160" data-name="t" class="cls-7" d="M16.93,20.53l.09-.26.13,0"/></g></g></g></g><g id="γHya"><g id="star3-6" data-name="star3"><g id="star-17" data-name="star"><g id="c-81" data-name="c"><path id="t-161" data-name="t" class="cls-7" d="M22.08,19.4l-.07.21.1,0"/><path id="t-162" data-name="t" class="cls-7" d="M22.08,19.4l.06.21-.1,0"/></g><g id="c-82" data-name="c"><path id="t-163" data-name="t" class="cls-7" d="M22.28,19.55h-.21v.11"/><path id="t-164" data-name="t" class="cls-7" d="M22.28,19.55l-.17.13L22,19.59"/></g><g id="c-83" data-name="c"><path id="t-165" data-name="t" class="cls-7" d="M21.87,19.55l.17.13.07-.09"/><path id="t-166" data-name="t" class="cls-7" d="M21.87,19.55h.22v.11"/></g><g id="c-84" data-name="c"><path id="t-167" data-name="t" class="cls-7" d="M22.2,19.79l-.06-.2-.11,0"/><path id="t-168" data-name="t" class="cls-7" d="M22.2,19.79,22,19.66l.06-.08"/></g><g id="c-85" data-name="c"><path id="t-169" data-name="t" class="cls-7" d="M22,19.79l.17-.13-.06-.08"/><path id="t-170" data-name="t" class="cls-7" d="M22,19.79l.07-.2.1,0"/></g></g></g></g><g id="αCru"><g id="star1-5" data-name="star1"><g id="star-18" data-name="star"><g id="c-86" data-name="c"><path id="t-171" data-name="t" class="cls-7" d="M20,23.1l-.1.31.15.05"/><path id="t-172" data-name="t" class="cls-7" d="M20,23.1l.1.31-.15.05"/></g><g id="c-87" data-name="c"><path id="t-173" data-name="t" class="cls-7" d="M20.31,23.32H20v.17"/><path id="t-174" data-name="t" class="cls-7" d="M20.31,23.32l-.26.2-.1-.14"/></g><g id="c-88" data-name="c"><path id="t-175" data-name="t" class="cls-7" d="M19.69,23.32l.26.2.1-.14"/><path id="t-176" data-name="t" class="cls-7" d="M19.69,23.32H20v.17"/></g><g id="c-89" data-name="c"><path id="t-177" data-name="t" class="cls-7" d="M20.19,23.69l-.1-.31-.15.05"/><path id="t-178" data-name="t" class="cls-7" d="M20.19,23.69l-.26-.19.09-.13"/></g><g id="c-90" data-name="c"><path id="t-179" data-name="t" class="cls-7" d="M19.81,23.69l.26-.19L20,23.37"/><path id="t-180" data-name="t" class="cls-7" d="M19.81,23.69l.1-.31.15.05"/></g></g></g></g><g id="βCru"><g id="star2-7" data-name="star2"><g id="star-19" data-name="star"><g id="c-91" data-name="c"><path id="t-181" data-name="t" class="cls-7" d="M20.88,21.64l-.08.26.13,0"/><path id="t-182" data-name="t" class="cls-7" d="M20.88,21.64l.09.26-.13,0"/></g><g id="c-92" data-name="c"><path id="t-183" data-name="t" class="cls-7" d="M21.14,21.83h-.27V22"/><path id="t-184" data-name="t" class="cls-7" d="M21.14,21.83l-.22.16-.08-.11"/></g><g id="c-93" data-name="c"><path id="t-185" data-name="t" class="cls-7" d="M20.62,21.83l.22.16.08-.11"/><path id="t-186" data-name="t" class="cls-7" d="M20.62,21.83h.28V22"/></g><g id="c-94" data-name="c"><path id="t-187" data-name="t" class="cls-7" d="M21,22.13,21,21.87l-.13,0"/><path id="t-188" data-name="t" class="cls-7" d="M21,22.13,20.82,22l.08-.11"/></g><g id="c-95" data-name="c"><path id="t-189" data-name="t" class="cls-7" d="M20.72,22.13l.22-.16-.08-.11"/><path id="t-190" data-name="t" class="cls-7" d="M20.72,22.13l.09-.26.13,0"/></g></g></g></g><g id="γCru"><g id="star2-8" data-name="star2"><g id="star-20" data-name="star"><g id="c-96" data-name="c"><path id="t-191" data-name="t" class="cls-7" d="M20,21l-.08.26.13,0"/><path id="t-192" data-name="t" class="cls-7" d="M20,21l.08.26-.13,0"/></g><g id="c-97" data-name="c"><path id="t-193" data-name="t" class="cls-7" d="M20.26,21.14H20v.14"/><path id="t-194" data-name="t" class="cls-7" d="M20.26,21.14,20,21.3,20,21.19"/></g><g id="c-98" data-name="c"><path id="t-195" data-name="t" class="cls-7" d="M19.74,21.14l.22.16.08-.11"/><path id="t-196" data-name="t" class="cls-7" d="M19.74,21.14H20v.14"/></g><g id="c-99" data-name="c"><path id="t-197" data-name="t" class="cls-7" d="M20.16,21.45l-.08-.26-.13,0"/><path id="t-198" data-name="t" class="cls-7" d="M20.16,21.45l-.22-.17.08-.11"/></g><g id="c-100" data-name="c"><path id="t-199" data-name="t" class="cls-7" d="M19.84,21.45l.22-.17L20,21.17"/><path id="t-200" data-name="t" class="cls-7" d="M19.84,21.45l.08-.26.13,0"/></g></g></g></g><g id="δCru"><g id="star3-7" data-name="star3"><g id="star-21" data-name="star"><g id="c-101" data-name="c"><path id="t-201" data-name="t" class="cls-7" d="M19.23,21.69l-.07.21.11,0"/><path id="t-202" data-name="t" class="cls-7" d="M19.23,21.69l.07.21-.1,0"/></g><g id="c-102" data-name="c"><path id="t-203" data-name="t" class="cls-7" d="M19.44,21.84h-.22V22"/><path id="t-204" data-name="t" class="cls-7" d="M19.44,21.84l-.18.13-.06-.09"/></g><g id="c-103" data-name="c"><path id="t-205" data-name="t" class="cls-7" d="M19,21.84l.18.13.07-.09"/><path id="t-206" data-name="t" class="cls-7" d="M19,21.84h.22V22"/></g><g id="c-104" data-name="c"><path id="t-207" data-name="t" class="cls-7" d="M19.36,22.09l-.07-.21-.1,0"/><path id="t-208" data-name="t" class="cls-7" d="M19.36,22.09,19.18,22l.07-.09"/></g><g id="c-105" data-name="c"><path id="t-209" data-name="t" class="cls-7" d="M19.1,22.09l.18-.13-.06-.09"/><path id="t-210" data-name="t" class="cls-7" d="M19.1,22.09l.07-.21.1,0"/></g></g></g></g><g id="εCru"><g id="star4-2" data-name="star4"><g id="star-22" data-name="star"><g id="c-106" data-name="c"><path id="t-211" data-name="t" class="cls-7" d="M19.62,22.28l-.05.15.07,0"/><path id="t-212" data-name="t" class="cls-7" d="M19.62,22.28l0,.15-.07,0"/></g><g id="c-107" data-name="c"><path id="t-213" data-name="t" class="cls-7" d="M19.76,22.39h-.15v.08"/><path id="t-214" data-name="t" class="cls-7" d="M19.76,22.39l-.12.09-.05-.06"/></g><g id="c-108" data-name="c"><path id="t-215" data-name="t" class="cls-7" d="M19.47,22.39l.12.09.05-.06"/><path id="t-216" data-name="t" class="cls-7" d="M19.47,22.39h.15v.08"/></g><g id="c-109" data-name="c"><path id="t-217" data-name="t" class="cls-7" d="M19.71,22.57l-.05-.15-.07,0"/><path id="t-218" data-name="t" class="cls-7" d="M19.71,22.57l-.13-.1.05-.06"/></g><g id="c-110" data-name="c"><path id="t-219" data-name="t" class="cls-7" d="M19.52,22.57l.13-.1,0-.06"/><path id="t-220" data-name="t" class="cls-7" d="M19.52,22.57l.05-.15.08,0"/></g></g></g></g><g id="αTrA"><g id="star2-9" data-name="star2"><g id="star-23" data-name="star"><g id="c-111" data-name="c"><path id="t-221" data-name="t" class="cls-7" d="M22.28,24.87l-.08.25.13.05"/><path id="t-222" data-name="t" class="cls-7" d="M22.28,24.87l.09.25-.13.05"/></g><g id="c-112" data-name="c"><path id="t-223" data-name="t" class="cls-7" d="M22.54,25.05h-.27v.14"/><path id="t-224" data-name="t" class="cls-7" d="M22.54,25.05l-.22.16-.08-.11"/></g><g id="c-113" data-name="c"><path id="t-225" data-name="t" class="cls-7" d="M22,25.05l.22.16.08-.11"/><path id="t-226" data-name="t" class="cls-7" d="M22,25.05h.28v.14"/></g><g id="c-114" data-name="c"><path id="t-227" data-name="t" class="cls-7" d="M22.44,25.36l-.08-.26-.13,0"/><path id="t-228" data-name="t" class="cls-7" d="M22.44,25.36l-.22-.16.08-.11"/></g><g id="c-115" data-name="c"><path id="t-229" data-name="t" class="cls-7" d="M22.12,25.36l.22-.16-.08-.11"/><path id="t-230" data-name="t" class="cls-7" d="M22.12,25.36l.09-.26.13,0"/></g></g></g></g><g id="βTrA"><g id="star3-8" data-name="star3"><g id="star-24" data-name="star"><g id="c-116" data-name="c"><path id="t-231" data-name="t" class="cls-7" d="M22.94,24.25l-.07.2.1,0"/><path id="t-232" data-name="t" class="cls-7" d="M22.94,24.25l.06.2-.1,0"/></g><g id="c-117" data-name="c"><path id="t-233" data-name="t" class="cls-7" d="M23.14,24.4h-.21v.1"/><path id="t-234" data-name="t" class="cls-7" d="M23.14,24.4l-.17.12-.07-.08"/></g><g id="c-118" data-name="c"><path id="t-235" data-name="t" class="cls-7" d="M22.73,24.4l.18.12.06-.08"/><path id="t-236" data-name="t" class="cls-7" d="M22.73,24.4H23v.1"/></g><g id="c-119" data-name="c"><path id="t-237" data-name="t" class="cls-7" d="M23.07,24.64,23,24.43l-.11,0"/><path id="t-238" data-name="t" class="cls-7" d="M23.07,24.64l-.18-.13.06-.09"/></g><g id="c-120" data-name="c"><path id="t-239" data-name="t" class="cls-7" d="M22.81,24.64l.18-.13-.07-.09"/><path id="t-240" data-name="t" class="cls-7" d="M22.81,24.64l.07-.21.1,0"/></g></g></g></g><g id="γTrA"><g id="star3-9" data-name="star3"><g id="star-25" data-name="star"><g id="c-121" data-name="c"><path id="t-241" data-name="t" class="cls-7" d="M21.68,24.06l-.07.21.11,0"/><path id="t-242" data-name="t" class="cls-7" d="M21.68,24.06l.07.21-.1,0"/></g><g id="c-122" data-name="c"><path id="t-243" data-name="t" class="cls-7" d="M21.89,24.21h-.22v.11"/><path id="t-244" data-name="t" class="cls-7" d="M21.89,24.21l-.18.13-.06-.09"/></g><g id="c-123" data-name="c"><path id="t-245" data-name="t" class="cls-7" d="M21.47,24.21l.18.13.06-.09"/><path id="t-246" data-name="t" class="cls-7" d="M21.47,24.21h.22v.11"/></g><g id="c-124" data-name="c"><path id="t-247" data-name="t" class="cls-7" d="M21.81,24.45l-.07-.2-.1,0"/><path id="t-248" data-name="t" class="cls-7" d="M21.81,24.45l-.18-.13.07-.08"/></g><g id="c-125" data-name="c"><path id="t-249" data-name="t" class="cls-7" d="M21.55,24.45l.18-.13-.06-.08"/><path id="t-250" data-name="t" class="cls-7" d="M21.55,24.45l.07-.2.1,0"/></g></g></g></g><g id="αCar"><g id="star1-6" data-name="star1"><g id="star-26" data-name="star"><g id="c-126" data-name="c"><path id="t-251" data-name="t" class="cls-7" d="M16.94,23.72l-.1.31.15,0"/><path id="t-252" data-name="t" class="cls-7" d="M16.94,23.72,17,24l-.16,0"/></g><g id="c-127" data-name="c"><path id="t-253" data-name="t" class="cls-7" d="M17.25,24h-.33v.16"/><path id="t-254" data-name="t" class="cls-7" d="M17.25,24l-.27.19L16.89,24"/></g><g id="c-128" data-name="c"><path id="t-255" data-name="t" class="cls-7" d="M16.63,24l.26.19L17,24"/><path id="t-256" data-name="t" class="cls-7" d="M16.63,24H17v.16"/></g><g id="c-129" data-name="c"><path id="t-257" data-name="t" class="cls-7" d="M17.13,24.31,17,24l-.16.05"/><path id="t-258" data-name="t" class="cls-7" d="M17.13,24.31l-.26-.19L17,24"/></g><g id="c-130" data-name="c"><path id="t-259" data-name="t" class="cls-7" d="M16.75,24.31l.26-.19-.1-.13"/><path id="t-260" data-name="t" class="cls-7" d="M16.75,24.31l.1-.31.15.05"/></g></g></g></g><g id="σOct"><g id="star5"><g id="star-27" data-name="star"><g id="c-131" data-name="c"><path id="t-261" data-name="t" class="cls-7" d="M20,25.86l0,.1L20,26"/><path id="t-262" data-name="t" class="cls-7" d="M20,25.86l0,.1L20,26"/></g><g id="c-132" data-name="c"><path id="t-263" data-name="t" class="cls-7" d="M20.1,25.93H20V26"/><path id="t-264" data-name="t" class="cls-7" d="M20.1,25.93,20,26,20,26"/></g><g id="c-133" data-name="c"><path id="t-265" data-name="t" class="cls-7" d="M19.9,25.93,20,26,20,26"/><path id="t-266" data-name="t" class="cls-7" d="M19.9,25.93H20V26"/></g><g id="c-134" data-name="c"><path id="t-267" data-name="t" class="cls-7" d="M20.06,26.06,20,26,20,26"/><path id="t-268" data-name="t" class="cls-7" d="M20.06,26.06,20,26l0,0"/></g><g id="c-135" data-name="c"><path id="t-269" data-name="t" class="cls-7" d="M19.94,26.06,20,26l0,0"/><path id="t-270" data-name="t" class="cls-7" d="M19.94,26.06,20,26,20,26"/></g></g></g></g></g></g></g></svg>